<svg xmlns="http://www.w3.org/2000/svg" height="148.12" width="182.26" viewBox="0 0 182.66667 150.66667"><defs><clipPath id="a"><path d="M0 10.012h1366.9v1110.9H0z"/></clipPath></defs><g clip-path="url(#a)" transform="matrix(.1333 0 0 -.1333 0 150.67)" fill="#fff"><path d="M1366.9 989.39c-50.27-22.309-104.33-37.387-161.05-44.18 57.89 34.723 102.34 89.679 123.28 155.15-54.18-32.15-114.18-55.47-178.09-68.04-51.13 54.49-124.02 88.55-204.68 88.55-154.89 0-280.43-125.55-280.43-280.43 0-21.988 2.457-43.398 7.258-63.91-233.08 11.68-439.72 123.36-578.04 293.01-24.141-41.4-37.969-89.567-37.969-140.97 0-97.308 49.489-183.13 124.76-233.44-45.969 1.437-89.218 14.058-127.03 35.078-.043-1.18-.043-2.348-.043-3.52 0-135.9 96.68-249.22 224.96-275-23.512-6.41-48.281-9.8-73.86-9.8a279.245 279.245 0 0 0-52.781 5c35.711-111.41 139.26-192.5 262-194.77-96.058-75.23-216.96-120.04-348.36-120.04a573.814 573.814 0 0 0-66.918 3.91c124.16-79.568 271.55-125.98 429.94-125.98 515.82 0 797.86 427.31 797.86 797.93 0 12.153-.28 24.223-.79 36.25 54.77 39.571 102.31 88.95 139.93 145.2"/></g></svg>